<svg width="1282" height="791" xmlns="http://www.w3.org/2000/svg">
 <!-- Created with Method Draw - http://github.com/duopixel/Method-Draw/ -->

 <g>
  <title>background</title>
  <rect x="-1" y="-1" width="1284" height="793" id="canvas_background" fill="#fff"/>
  <g id="canvasGrid" display="none">
   <rect id="svg_1" width="100%" height="100%" x="0" y="0" stroke-width="0" fill="url(#gridpattern)"/>
  </g>
 </g>
 <g>
  <title>Layer 1</title>
  <text fill="#ff7f00" x="479.695391" y="240.132967" id="svg_3" font-size="24" font-family="Helvetica, Arial, sans-serif" text-anchor="start" xml:space="preserve" transform="matrix(44.69034225715459,0,0,36.90962018713543,-21186.065749788588,-8161.696174028996) " stroke="#2d2d5e">#</text>
  <path stroke="#2d2d5e" fill="#ff7f00" stroke-width="26.5" d="m1086.21484,352.22188c53.015778,-55.501337 63.672268,-131.241557 34.831752,-194.938539l-106.433656,113.013333l-104.917424,-18.573695l-34.764277,-92.024548l106.164477,-112.750857c-73.02616,-16.728834 -153.478751,3.467323 -206.260985,58.749032c-55.665467,58.280415 -64.775191,138.987444 -30.321143,204.46758l-277.428895,290.491994c-29.519829,30.884393 -25.923572,77.726671 7.995297,104.595265c33.918841,26.849661 85.352862,23.60452 114.86244,-7.280212l277.10388,-290.20541c76.278424,22.38644 163.245526,3.001525 219.168562,-55.543916l-0.000026,-0.000024l0,-0.000002z" id="svg_4"/>
 </g>
</svg>