<svg width="1253" height="778" xmlns="http://www.w3.org/2000/svg">
 <!-- Created with Method Draw - http://github.com/duopixel/Method-Draw/ -->
 <g>
  <title>background</title>
  <rect fill="#fff" id="canvas_background" height="780" width="1255" y="-1" x="-1"/>
  <g display="none" overflow="visible" y="0" x="0" height="100%" width="100%" id="canvasGrid">
   <rect fill="url(#gridpattern)" stroke-width="0" y="0" x="0" height="100%" width="100%"/>
  </g>
 </g>
 <g>
  <title>Layer 1</title>
  <rect stroke="#007fff" rx="15" id="svg_1" height="255.999996" width="355.000026" y="13" x="33" stroke-width="1.5" fill="#84d8ff"/>
  <path stroke="#007fff" id="svg_2" d="m164.166568,222.140351c-17.591361,0 -31.858789,-13.327519 -31.858789,-29.759998l0,0c0.01062,-13.188639 9.20719,-24.299039 21.913537,-28.192638l0,0c0.440713,-11.209599 10.285079,-20.157439 22.386109,-20.167359l0,0c3.876153,0 7.513364,0.9424 10.672694,2.56432l0,0c6.722204,-10.440799 18.955979,-17.439359 32.963227,-17.444319l0,0c20.957773,0.00992 38.002225,15.648799 38.485417,35.111838l0,0c12.541743,3.98784 21.5684,15.048639 21.57902,28.128158l0,0c0,16.432479 -14.267428,29.759998 -31.858789,29.759998l0,0l-84.282426,0l0,0zm88.147959,-49.227997c-2.713307,-0.4712 -4.587666,-2.78752 -4.327485,-5.35184l0,0c0.090267,-0.84816 0.143365,-1.66656 0.143365,-2.46512l0,0c-0.037169,-14.379039 -12.488645,-26.015199 -27.88175,-26.035039l0,0c-11.941736,-0.00992 -22.09938,7.03328 -26.076419,16.913599l0,0c-0.647795,1.60208 -2.155778,2.79744 -3.971729,3.1248l0,0c-1.805331,0.32736 -3.685,-0.25792 -4.922183,-1.53264l0,0c-2.208876,-2.24688 -5.235461,-3.62576 -8.6709,-3.62576l0,0c-6.504503,0.00992 -11.766513,4.92528 -11.787752,11.001279l0,0c0,0.67456 0.090267,1.36896 0.238941,2.10304l0,0c0.26018,1.31936 -0.042478,2.6784 -0.865497,3.77952l0,0c-0.823019,1.10608 -2.081441,1.84016 -3.488537,2.05344l0,0c-10.088616,1.55248 -17.798443,9.667039 -17.787824,19.497759l0,0c0.021239,10.956639 9.515158,19.815199 21.244502,19.844959l0,0l84.287736,0c11.729344,-0.02976 21.207334,-8.888319 21.233883,-19.844959l0,0c0.021239,-9.706719 -7.486815,-17.756799 -17.36835,-19.463039l0,0" stroke-width="1.5" fill="#ffffff"/>
  <text stroke="#007fff" transform="matrix(0.871202706041926,0,0,1.1985839441043817,-38.45933493267507,-9.011703093732567) " xml:space="preserve" text-anchor="start" font-family="'Trebuchet MS', Gadget, sans-serif" font-size="24" id="svg_4" y="72.636825" x="116.133715" stroke-width="0" fill="#005fbf">Static data structure in memory</text>
  <rect stroke="#7f7f00" rx="15" id="svg_5" height="231.99999" width="390.000002" y="23" x="834" stroke-width="3.5" fill="#ffff00"/>
  <text stroke="#7f7f00" transform="matrix(1.2069046424615242,0,0,1.706202787280787,-184.88972687449908,-97.12281080214052) " xml:space="preserve" text-anchor="start" font-family="'Trebuchet MS', Gadget, sans-serif" font-size="24" id="svg_6" y="143.039547" x="873.228834" stroke-width="0" fill="#7f7f00">Proxified/Observer layer</text>
  <path stroke="#bf00bf" id="svg_7" d="m414.998351,163.50453l115.097094,-43.00012l0,21.500003l166.805797,0l0,-21.500003l115.097041,43.00012l-115.097041,42.999892l0,-21.499948l-166.805797,0l0,21.499948l-115.097094,-42.999892z" stroke-width="3.5" fill="#ffaad4"/>
  <text stroke="#bf00bf" transform="matrix(1.1117915035408146,0,0,1.157142923559462,-101.4815018336299,-14.257147036280003) " xml:space="preserve" text-anchor="start" font-family="'Trebuchet MS', Gadget, sans-serif" font-size="24" id="svg_8" y="89.592592" x="570.100551" stroke-width="0" fill="#666666">Bi-directional</text>
  <text stroke="#bf00bf" transform="matrix(1.055949712196778,0,0,1.0851947625849283,-32.81109349919518,-38.80004620764794) " xml:space="preserve" text-anchor="start" font-family="'Trebuchet MS', Gadget, sans-serif" font-size="24" id="svg_9" y="281.221494" x="510.745645" stroke-opacity="null" stroke-width="0" fill="#666666">data flow/transfer</text>
  <path stroke="#bf00bf" transform="rotate(-180 916.802490234375,353.71820068359375) " id="svg_10" d="m871.302495,353.546592l45.499992,-71.328381l45.499992,71.328381l-22.749997,0l0,71.6716l-45.499988,0l0,-71.6716l-22.749997,0z" stroke-width="3.5" fill="#ffaad4"/>
  <rect stroke="#bf00bf" rx="15" id="svg_13" height="281.000011" width="341.000015" y="440" x="40" stroke-width="3.5" fill="#ffaad4"/>
  <rect stroke="#007f00" rx="15" id="svg_14" height="281.000011" width="379.000021" y="446" x="844" stroke-width="3.5" fill="#56ff56"/>
  <text stroke="#007f00" transform="matrix(1.4255112697034484,0,0,2.1017269002269674,-400.65957476659196,-553.4869327700828) " xml:space="preserve" text-anchor="start" font-family="'Trebuchet MS', Gadget, sans-serif" font-size="24" id="svg_15" y="523.162089" x="927.926717" stroke-width="0" fill="#007f00">'onHashChange'</text>
  <text stroke="#007f00" transform="matrix(2.985111713409424,0,0,1.430976390838623,-2109.367299720645,-297.508389800787) " xml:space="preserve" text-anchor="start" font-family="'Trebuchet MS', Gadget, sans-serif" font-size="24" id="svg_16" y="685" x="1050" stroke-width="0" fill="#007f00"/>
  <text stroke="#007f00" transform="matrix(1.0669847311134504,0,0,1.3115800023078914,-62.92160215494983,-177.81012106779963) " xml:space="preserve" text-anchor="start" font-family="'Trebuchet MS', Gadget, sans-serif" font-size="24" id="svg_17" y="622.666667" x="945.423623" stroke-width="0" fill="#007f00">event aggregator</text>
  <text stroke="#bf00bf" transform="matrix(0.9137729961067478,0,0,1.0463894184606757,67.71077324755038,-27.718830903596725) " xml:space="preserve" text-anchor="start" font-family="'Trebuchet MS', Gadget, sans-serif" font-size="24" id="svg_18" y="317.379318" x="1018.282639" stroke-opacity="null" stroke-width="0" fill="#666666">All set/get properties</text>
  <text stroke="#bf00bf" transform="matrix(0.8146736356187246,0,0,0.8975328200735428,149.0081123690494,60.22138935989687) " xml:space="preserve" text-anchor="start" font-family="'Trebuchet MS', Gadget, sans-serif" font-size="24" id="svg_19" y="361.541383" x="1019.755285" stroke-opacity="null" stroke-width="0" fill="#666666">from the subject is passed on</text>
  <path stroke="#007fff" transform="rotate(-90 608.8024902343751,578.2182006835938) " id="svg_20" d="m565.802499,577.854566l42.999991,-151.136352l42.999991,151.136352l-21.5,0l0,151.863595l-42.999991,0l0,-151.863595l-21.499991,0z" stroke-width="3.5" fill="#9be4ff"/>
  <text stroke="#bf00bf" transform="matrix(1.275266770839607,0,0,1.9177260082834378,-61.29740646456684,-529.3866809602124) " xml:space="preserve" text-anchor="start" font-family="'Trebuchet MS', Gadget, sans-serif" font-size="24" id="svg_21" y="589.042902" x="110.942653" stroke-opacity="null" stroke-width="0" fill="#bf00bf">Common Interface</text>
  <text xml:space="preserve" text-anchor="start" font-family="'Trebuchet MS', Gadget, sans-serif" font-size="24" id="svg_22" y="496" x="535" stroke-width="0" stroke="#007fff" fill="#4c4c4c">Data is binded to</text>
  <text xml:space="preserve" text-anchor="start" font-family="'Trebuchet MS', Gadget, sans-serif" font-size="24" id="svg_23" y="679" x="552" stroke-width="0" stroke="#007fff" fill="#4c4c4c">core methods</text>
 </g>
</svg>